<svg width="597" height="597" viewBox="0 0 597 597" fill="none" xmlns="http://www.w3.org/2000/svg">
<path d="M328.717 479.266C329.253 424.47 315.361 379.909 297.69 379.736C280.017 379.564 265.257 423.845 264.722 478.64C264.186 533.436 278.078 577.998 295.749 578.17C313.422 578.343 328.182 534.062 328.717 479.266Z" fill="#E8F7F3"/>
<path d="M226.227 466.821C256.305 421.014 268.712 376.017 253.94 366.317C239.167 356.617 202.808 385.886 172.731 431.693C142.653 477.5 130.246 522.496 145.019 532.197C159.792 541.897 196.149 512.627 226.227 466.821Z" fill="#E8F7F3"/>
<path d="M146.614 401.1C196.683 378.83 231.449 347.686 224.266 331.538C217.084 315.39 170.673 320.355 120.604 342.627C70.5351 364.897 35.769 396.042 42.9515 412.189C50.1339 428.337 96.5452 423.372 146.614 401.1Z" fill="#E8F7F3"/>
<path d="M218.256 286.256C220.944 268.789 179.218 247.871 125.058 239.534C70.8967 231.198 24.8114 238.601 22.1229 256.068C19.4345 273.535 61.161 294.451 115.322 302.788C169.482 311.124 215.568 303.721 218.256 286.256Z" fill="#E8F7F3"/>
<path d="M237.701 244.645C249.405 231.403 225.606 191.25 184.546 154.961C143.485 118.672 100.712 99.9888 89.0082 113.231C77.3049 126.473 101.104 166.626 142.165 202.916C183.225 239.205 225.999 257.887 237.701 244.645Z" fill="#E8F7F3"/>
<path d="M276.428 220.326C293.433 215.515 295.122 168.869 280.202 116.141C265.282 63.4127 239.401 24.569 222.396 29.381C205.391 34.1929 203.701 80.8382 218.622 133.567C233.542 186.294 259.423 225.138 276.428 220.326Z" fill="#E8F7F3"/>
<path d="M381.584 135.207C397.541 82.7835 396.772 36.1139 379.865 30.9676C362.958 25.8212 336.317 64.147 320.359 116.571C304.402 168.994 305.171 215.664 322.078 220.81C338.985 225.956 365.627 187.631 381.584 135.207Z" fill="#E8F7F3"/>
<path d="M456.721 206.043C498.483 170.563 523.063 130.883 511.62 117.415C500.178 103.947 457.047 121.79 415.286 157.269C373.523 192.749 348.945 232.429 360.387 245.897C371.829 259.366 414.96 241.522 456.721 206.043Z" fill="#E8F7F3"/>
<path d="M481.566 306.284C535.882 299.017 578.012 278.927 575.668 261.409C573.325 243.893 527.395 235.584 473.08 242.85C418.766 250.117 376.634 270.207 378.978 287.724C381.322 305.24 427.251 313.55 481.566 306.284Z" fill="#E8F7F3"/>
<path d="M551.634 417.196C559.133 401.194 524.988 369.37 475.368 346.116C425.749 322.861 379.444 316.983 371.945 332.985C364.445 348.988 398.59 380.812 448.211 404.066C497.83 427.319 544.134 433.199 551.634 417.196Z" fill="#E8F7F3"/>
<path d="M447.259 535.269C462.22 525.863 450.703 480.629 421.534 434.239C392.366 387.848 356.592 357.868 341.631 367.274C326.67 376.681 338.187 421.914 367.355 468.305C396.524 514.695 432.298 544.677 447.259 535.269Z" fill="#E8F7F3"/>
</svg>
