<svg width="1440" height="890" viewBox="0 0 1440 890" fill="none" xmlns="http://www.w3.org/2000/svg">
<g clip-path="url(#clip0_1011_3493)">
<rect width="1440" height="890" fill="white"/>
<path d="M254.384 370.889C254.799 328.484 244.048 294 230.373 293.866C216.697 293.733 205.274 328.001 204.86 370.405C204.445 412.81 215.196 447.294 228.871 447.428C242.547 447.562 253.97 413.294 254.384 370.889Z" fill="#E8F7F3"/>
<path d="M175.07 361.258C198.347 325.81 207.948 290.988 196.517 283.481C185.084 275.975 156.947 298.626 133.672 334.074C110.395 369.522 100.794 404.343 112.226 411.851C123.658 419.357 151.794 396.706 175.07 361.258Z" fill="#E8F7F3"/>
<path d="M113.46 310.399C152.207 293.165 179.111 269.063 173.552 256.567C167.995 244.071 132.079 247.913 93.3317 265.148C54.5851 282.383 27.6807 306.484 33.239 318.981C38.7972 331.477 74.7135 327.635 113.46 310.399Z" fill="#E8F7F3"/>
<path d="M168.902 221.524C170.982 208.007 138.691 191.819 96.7788 185.368C54.865 178.917 19.201 184.646 17.1205 198.163C15.0401 211.68 47.3309 227.867 89.2443 234.318C131.157 240.769 166.822 235.041 168.902 221.524Z" fill="#E8F7F3"/>
<path d="M183.95 189.323C193.007 179.076 174.59 148.003 142.815 119.92C111.039 91.8366 77.9379 77.3782 68.881 87.626C59.8242 97.8739 78.2413 128.947 110.017 157.03C141.793 185.113 174.894 199.571 183.95 189.323Z" fill="#E8F7F3"/>
<path d="M213.919 170.504C227.079 166.78 228.386 130.682 216.84 89.8779C205.294 49.0732 185.265 19.0133 172.105 22.7371C158.946 26.4609 157.638 62.5583 169.185 103.363C180.731 144.167 200.76 174.228 213.919 170.504Z" fill="#E8F7F3"/>
<path d="M295.296 104.633C307.645 64.0637 307.05 27.9474 293.966 23.9649C280.882 19.9823 260.265 49.6414 247.916 90.2104C235.567 130.779 236.162 166.896 249.246 170.878C262.33 174.86 282.947 145.202 295.296 104.633Z" fill="#E8F7F3"/>
<path d="M353.443 159.45C385.762 131.993 404.783 101.286 395.927 90.8635C387.073 80.4408 353.695 94.2497 321.377 121.705C289.058 149.162 270.038 179.869 278.893 190.292C287.747 200.715 321.125 186.907 353.443 159.45Z" fill="#E8F7F3"/>
<path d="M372.669 237.023C414.702 231.4 447.305 215.853 445.492 202.297C443.679 188.742 408.134 182.312 366.101 187.934C324.07 193.558 291.465 209.105 293.279 222.661C295.093 236.216 330.636 242.647 372.669 237.023Z" fill="#E8F7F3"/>
<path d="M426.892 322.855C432.696 310.472 406.272 285.844 367.872 267.848C329.474 249.853 293.64 245.304 287.836 257.687C282.033 270.072 308.456 294.699 346.856 312.695C385.255 330.69 421.088 335.239 426.892 322.855Z" fill="#E8F7F3"/>
<path d="M346.121 414.228C357.698 406.949 348.785 371.944 326.213 336.044C303.641 300.144 275.956 276.943 264.378 284.223C252.8 291.502 261.713 326.507 284.286 362.407C306.858 398.307 334.543 421.509 346.121 414.228Z" fill="#E8F7F3"/>
<rect x="-168.384" y="484.003" width="1685.89" height="437.177" transform="rotate(-15.5 -168.384 484.003)" fill="#FAFAFA"/>
</g>
<defs>
<clipPath id="clip0_1011_3493">
<rect width="1440" height="890" fill="white"/>
</clipPath>
</defs>
</svg>
