<svg width="1440" height="1201" viewBox="0 0 1440 1201" fill="none" xmlns="http://www.w3.org/2000/svg">
<g clip-path="url(#clip0_925_4264)">
<rect width="1440" height="1201" fill="white"/>
<path d="M1171.72 599.266C1172.25 544.47 1158.36 499.909 1140.69 499.736C1123.02 499.564 1108.26 543.845 1107.72 598.64C1107.19 653.436 1121.08 697.998 1138.75 698.17C1156.42 698.343 1171.18 654.062 1171.72 599.266Z" fill="#E8F7F3"/>
<path d="M1069.23 586.82C1099.31 541.014 1111.71 496.017 1096.94 486.317C1082.17 476.617 1045.81 505.886 1015.73 551.693C985.653 597.499 973.246 642.495 988.019 652.197C1002.79 661.897 1039.15 632.627 1069.23 586.82Z" fill="#E8F7F3"/>
<path d="M989.614 521.1C1039.68 498.83 1074.45 467.685 1067.27 451.538C1060.08 435.39 1013.67 440.355 963.604 462.626C913.535 484.897 878.769 516.041 885.952 532.189C893.134 548.337 939.545 543.372 989.614 521.1Z" fill="#E8F7F3"/>
<path d="M1061.26 406.256C1063.94 388.789 1022.22 367.871 968.058 359.534C913.897 351.198 867.811 358.601 865.123 376.068C862.435 393.535 904.161 414.451 958.322 422.788C1012.48 431.124 1058.57 423.721 1061.26 406.256Z" fill="#E8F7F3"/>
<path d="M1080.7 364.644C1092.4 351.403 1068.61 311.25 1027.55 274.961C986.485 238.672 943.712 219.989 932.008 233.231C920.305 246.473 944.104 286.626 985.165 322.915C1026.23 359.205 1069 377.887 1080.7 364.644Z" fill="#E8F7F3"/>
<path d="M1119.43 340.326C1136.43 335.515 1138.12 288.869 1123.2 236.141C1108.28 183.413 1082.4 144.569 1065.4 149.381C1048.39 154.193 1046.7 200.838 1061.62 253.567C1076.54 306.294 1102.42 345.138 1119.43 340.326Z" fill="#E8F7F3"/>
<path d="M1224.58 255.207C1240.54 202.784 1239.77 156.114 1222.87 150.968C1205.96 145.821 1179.32 184.147 1163.36 236.571C1147.4 288.994 1148.17 335.664 1165.08 340.81C1181.99 345.956 1208.63 307.631 1224.58 255.207Z" fill="#E8F7F3"/>
<path d="M1299.72 326.043C1341.48 290.563 1366.06 250.883 1354.62 237.415C1343.18 223.947 1300.05 241.79 1258.29 277.269C1216.52 312.749 1191.94 352.429 1203.39 365.897C1214.83 379.366 1257.96 361.522 1299.72 326.043Z" fill="#E8F7F3"/>
<path d="M1324.57 426.284C1378.88 419.017 1421.01 398.927 1418.67 381.409C1416.33 363.893 1370.39 355.584 1316.08 362.85C1261.77 370.117 1219.63 390.207 1221.98 407.724C1224.32 425.24 1270.25 433.55 1324.57 426.284Z" fill="#E8F7F3"/>
<path d="M1394.63 537.196C1402.13 521.194 1367.99 489.37 1318.37 466.116C1268.75 442.861 1222.44 436.983 1214.94 452.985C1207.45 468.988 1241.59 500.812 1291.21 524.066C1340.83 547.319 1387.13 553.199 1394.63 537.196Z" fill="#E8F7F3"/>
<path d="M1290.26 655.269C1305.22 645.863 1293.7 600.629 1264.53 554.239C1235.37 507.848 1199.59 477.868 1184.63 487.274C1169.67 496.681 1181.19 541.914 1210.36 588.305C1239.52 634.695 1275.3 664.677 1290.26 655.269Z" fill="#E8F7F3"/>
<rect x="-245" y="82" width="2223.7" height="440.578" transform="rotate(20.3945 -245 82)" fill="#FAFAFA"/>
<g opacity="0.54" filter="url(#filter0_f_925_4264)">
<ellipse cx="150.192" cy="907.99" rx="96.1918" ry="75.9897" fill="#1CAF83"/>
</g>
<g opacity="0.54" filter="url(#filter1_f_925_4264)">
<ellipse cx="1206.19" cy="329.731" rx="96.1918" ry="64.5895" fill="#1CAF83"/>
</g>
</g>
<defs>
<filter id="filter0_f_925_4264" x="-246" y="532" width="792.383" height="751.979" filterUnits="userSpaceOnUse" color-interpolation-filters="sRGB">
<feFlood flood-opacity="0" result="BackgroundImageFix"/>
<feBlend mode="normal" in="SourceGraphic" in2="BackgroundImageFix" result="shape"/>
<feGaussianBlur stdDeviation="150" result="effect1_foregroundBlur_925_4264"/>
</filter>
<filter id="filter1_f_925_4264" x="810" y="-34.8584" width="792.383" height="729.179" filterUnits="userSpaceOnUse" color-interpolation-filters="sRGB">
<feFlood flood-opacity="0" result="BackgroundImageFix"/>
<feBlend mode="normal" in="SourceGraphic" in2="BackgroundImageFix" result="shape"/>
<feGaussianBlur stdDeviation="150" result="effect1_foregroundBlur_925_4264"/>
</filter>
<clipPath id="clip0_925_4264">
<rect width="1440" height="1201" fill="white"/>
</clipPath>
</defs>
</svg>
