<svg width="33" height="33" fill="none" xmlns="http://www.w3.org/2000/svg"><path fill-rule="evenodd" clip-rule="evenodd" d="M15.42.588c-.248.05-.692.212-1.03.379-.492.242-.686.384-1.132.83-.446.446-.587.638-.83 1.131-.632 1.288-.632 2.587 0 3.875.243.493.384.685.83 1.132.45.449.635.585 1.132.826 1.797.874 3.739.524 5.113-.923.739-.778 1.2-1.918 1.2-2.972 0-1.055-.461-2.195-1.2-2.973C18.415.748 16.966.285 15.42.588zm-3.474 9.526c-1.088.818-1.977 2.072-2.434 3.438-.278.83-.372 1.594-.372 3.05 0 1.469.05 1.66.498 1.888.242.123.356.126 6.69.126 6.333 0 6.446-.003 6.688-.126.448-.229.499-.42.498-1.887 0-.8-.034-1.495-.092-1.881a7.152 7.152 0 00-2.447-4.384c-.717-.613-.681-.606-1.253-.239-1.886 1.209-4.197 1.34-6.176.349a6.628 6.628 0 01-.735-.432c-.163-.117-.332-.213-.375-.212-.043 0-.263.14-.49.31zm-6.269 7.941c-.323.097-.496.347-1.157 1.673l-.65 1.307-1.408.2c-.774.11-1.497.238-1.606.284-.41.171-.651.808-.451 1.19.05.096.564.646 1.143 1.223l1.05 1.047-.229 1.338c-.126.736-.23 1.452-.23 1.59 0 .507.471.928.98.877.174-.018.672-.244 1.52-.691.693-.366 1.286-.665 1.318-.665.031 0 .623.3 1.315.665.843.446 1.343.673 1.516.69.506.052.977-.37.977-.875 0-.14-.104-.855-.23-1.59l-.23-1.338 1.052-1.049c.578-.576 1.092-1.126 1.143-1.222.2-.381-.042-1.02-.45-1.19-.108-.045-.832-.174-1.609-.288l-1.412-.206-.648-1.301c-.356-.716-.72-1.371-.809-1.456-.146-.14-.493-.285-.65-.272-.035.003-.145.03-.245.06zm20.75 0c-.323.097-.496.347-1.157 1.673l-.65 1.307-1.408.2c-.774.11-1.497.238-1.606.284-.41.171-.651.808-.451 1.19.05.096.564.646 1.143 1.223l1.05 1.047-.229 1.338c-.126.736-.23 1.452-.23 1.59 0 .507.471.928.98.877.174-.018.672-.244 1.52-.691.693-.366 1.286-.665 1.318-.665.031 0 .623.3 1.315.665.843.446 1.343.673 1.516.69.506.052.977-.37.977-.875 0-.14-.104-.855-.23-1.59l-.23-1.338 1.052-1.049c.578-.576 1.092-1.126 1.143-1.222.2-.381-.042-1.02-.45-1.19-.108-.045-.832-.174-1.609-.288l-1.412-.206-.648-1.301c-.356-.716-.72-1.371-.809-1.456-.146-.14-.493-.285-.65-.272-.035.003-.145.03-.245.06zm-10.375 3.688c-.323.097-.496.347-1.157 1.673l-.65 1.306-1.408.2c-.774.111-1.497.239-1.606.284-.413.173-.651.809-.448 1.197.052.1.567.65 1.143 1.222l1.048 1.04-.23 1.339c-.126.736-.23 1.452-.23 1.591 0 .505.471.928.977.876.17-.017.682-.249 1.525-.69.697-.366 1.291-.665 1.32-.665.03 0 .62.299 1.311.664.843.446 1.343.674 1.516.691.506.052.977-.37.977-.876 0-.139-.104-.855-.23-1.593l-.23-1.34 1.045-1.032c.575-.567 1.09-1.116 1.143-1.22.205-.397-.01-.99-.43-1.188-.113-.053-.84-.189-1.619-.302l-1.414-.206-.648-1.302c-.357-.716-.721-1.372-.81-1.457-.146-.14-.493-.285-.65-.271-.035.002-.145.03-.245.059z" fill="#1CAF83"/></svg>