<svg width="32" height="33" fill="none" xmlns="http://www.w3.org/2000/svg"><path fill-rule="evenodd" clip-rule="evenodd" d="M6.087 1.13a6.158 6.158 0 00-.484.14c-.012.012.795 3.225 1.048 4.17l.06.225.453-.12c.25-.066.487-.131.528-.144.051-.017-.079-.622-.425-1.98C6.617.87 6.65.993 6.599 1c-.024.002-.255.06-.512.129zm17 1.236c0 .033-.056.447-.126.92-.145.986-.307 1.357-.738 1.688-.516.398-1.34.421-1.894.054-.13-.086-.492-.494-.804-.908l-.567-.75-.877.66c-.616.466-.86.683-.819.735.422.535 1.05 1.433 1.12 1.598.109.258.116.802.015 1.118-.166.517-.667.963-1.208 1.075-.266.055-.498.044-1.226-.058-.494-.07-.909-.116-.923-.102-.03.03-.336 2.113-.313 2.133.009.007.354.06.766.118 1.117.155 1.368.241 1.715.589.584.583.665 1.42.203 2.097-.092.134-.497.494-.902.8l-.735.554.659.874.659.874.625-.474c.886-.671 1.157-.8 1.657-.793a1.622 1.622 0 011.563 1.18c.1.348.1.403-.028 1.298-.073.514-.121.946-.107.961.028.028 2.118.328 2.138.307.006-.006.07-.416.142-.91.101-.69.17-.97.301-1.21.326-.599.906-.905 1.594-.843.577.053.855.262 1.536 1.156l.58.763.877-.66c.616-.465.859-.682.818-.734-.42-.534-1.037-1.418-1.108-1.59-.137-.326-.119-.983.036-1.303.193-.398.61-.75 1.04-.875.349-.103.402-.102 1.301.023.516.071.947.12.958.11.027-.028.329-2.111.308-2.131-.009-.009-.42-.075-.914-.147-.69-.1-.971-.17-1.21-.3-.599-.326-.905-.906-.843-1.595.053-.577.261-.854 1.16-1.538.527-.401.749-.606.71-.656l-.638-.854-.6-.804c-.01-.013-.36.23-.778.539-.418.309-.865.593-.995.632-.906.272-1.849-.227-2.107-1.114-.094-.323-.092-.399.034-1.278.073-.514.122-.946.108-.96-.021-.02-1.968-.321-2.115-.326-.026-.001-.047.025-.047.057zm-7.813 1.547a9.892 9.892 0 00-6.218 2.863 9.872 9.872 0 00-1.703 11.72c.696 1.282 1.615 2.313 2.952 3.312.981.733 1.288 1.056 1.565 1.646.273.584.341 1.11.343 2.657.001 1.102.015 1.259.129 1.511.235.519.63.822 1.22.937.25.05 1.118.066 2.713.052 2.6-.023 2.567-.018 3.048-.452.137-.124.315-.373.394-.553.135-.305.148-.439.185-1.953.043-1.74.064-1.863.416-2.463.252-.43.603-.777 1.261-1.247a12.593 12.593 0 001.823-1.598c.229-.251.254-.3.14-.271-.218.055-3.514-.437-3.687-.55-.266-.174-.277-.326-.11-1.473.202-1.393.201-1.442-.037-1.643-.209-.175-.368-.201-.571-.093a21.3 21.3 0 00-.999.719c-.478.357-.938.666-1.022.687-.345.087-.436 0-1.507-1.425-.573-.762-1.07-1.46-1.104-1.55-.128-.34-.03-.46 1.012-1.245.545-.41 1.008-.792 1.03-.85.105-.271.009-.6-.208-.717-.067-.036-.618-.137-1.225-.225-.608-.088-1.17-.185-1.25-.215a.566.566 0 01-.242-.241c-.09-.173-.078-.311.152-1.912.137-.949.278-1.78.314-1.848a.76.76 0 01.218-.222c.14-.093.244-.087 1.396.074 1.196.168 1.251.17 1.412.065.206-.135.313-.359.265-.553-.02-.08-.322-.526-.67-.989-.348-.463-.672-.918-.72-1.01-.149-.282-.112-.484.13-.711.12-.113.218-.222.218-.242 0-.035-.535-.032-1.063.008zm-14.052.465a4.528 4.528 0 00-.296.451c-.02.055 3.592 2.704 3.78 2.773.069.026.645-.867.59-.915a269.423 269.423 0 00-3.784-2.69c-.011 0-.142.172-.29.38zm10.987 3.32c.138.215.25.42.251.457.001.036-.174.195-.389.353-.78.574-1.478 1.414-1.936 2.331-.477.956-.674 1.81-.673 2.92.002 1.789.625 3.337 1.843 4.582.737.753 1.33 1.144 2.543 1.676 1.059.465 1.985 1.442 2.41 2.542.144.374.238.786.296 1.297l.038.328h-1.13v-.234c-.003-.632-.448-1.633-.951-2.137-.439-.44-.708-.616-1.466-.962-.81-.37-1.236-.627-1.879-1.138-1.333-1.06-2.306-2.68-2.683-4.467-.155-.738-.156-2.277 0-2.97.358-1.6 1.014-2.82 2.1-3.91.524-.526 1.194-1.058 1.33-1.058.025 0 .158.175.296.39zM24.09 7.51a3.366 3.366 0 012.154 2.455c.115.547.115.765.002 1.302a3.384 3.384 0 01-2.752 2.607c-1.675.26-3.33-.909-3.689-2.607-.114-.537-.113-.755.002-1.302.27-1.288 1.305-2.312 2.624-2.597.413-.089 1.211-.02 1.66.142zM2.148 9.932c-1.751.44-2.155.562-2.148.644.005.056.057.3.117.544.086.353.129.436.21.411.056-.017 1.03-.26 2.165-.543a81.313 81.313 0 002.089-.533c.034-.029-.194-1.023-.24-1.047-.02-.01-1.007.225-2.193.524zm3.456 5.69c-.1.42-.271.647-.616.814-.46.222-.716.159-1.533-.381l-.69-.456-.498.498-.498.498.37.534c.543.783.59.891.56 1.303-.049.673-.34.896-1.475 1.129l-.705.144.018.659.017.658.782.174c1.079.241 1.319.44 1.363 1.135l.025.395-.481.707-.481.707.499.5.499.499.672-.462.672-.462h.424c.712 0 .966.286 1.179 1.325.076.372.152.725.17.785.026.095.113.11.647.11.34 0 .632-.024.65-.053.018-.03.105-.388.193-.797.177-.819.31-1.074.664-1.272.253-.142.728-.172.95-.06.075.038.412.255.748.482l.612.413.573-.574.574-.573-.084-.237a2.754 2.754 0 00-.27-.507c-.178-.26-.295-.36-1.25-1.067l-.42-.312-.226.34c-.402.606-1.133 1.122-1.862 1.317-.437.116-1.314.11-1.732-.013-1.148-.337-2.077-1.32-2.31-2.443-.107-.515-.048-1.408.122-1.848.398-1.029 1.296-1.823 2.33-2.062.355-.082.344.023.112-1.017-.197-.885-.206-.9-.294-.53zm19.062 1.45a.579.579 0 00-.296.195c-.085.13-.44 2.28-.384 2.335.05.05.696-1.03.991-1.656.287-.607.3-.657.205-.762-.134-.149-.269-.178-.516-.113zm1.797 4.924v.563h3.88l-.018-.547-.018-.547-1.922-.016-1.922-.017v.564zm-.553 2.764c-.177.216-.32.407-.318.424.002.017.737.64 1.635 1.384l1.631 1.352.332-.384c.183-.21.332-.41.33-.445-.001-.062-3.107-2.663-3.227-2.703-.034-.011-.207.156-.383.372zm-9.323 1.362v.813h-1.125v-1.626h1.125v.813zm6.563 1.656v1.907h1.125V25.872H23.15v1.906zm-9.313 1.907v.562h4.375v-1.125h-4.375v.563zm.01 2.152c.02.404.047.494.211.696.357.44.456.465 1.946.465 1.407 0 1.562-.026 1.857-.301.25-.234.351-.508.351-.948v-.377H13.823l.024.465z" fill="#1CAF83"/></svg>