<svg width="32" height="33" fill="none" xmlns="http://www.w3.org/2000/svg"><rect x="2" y="2.998" width="28" height="28" rx="6" fill="url(#paint0_radial_299_2006)"/><rect x="2" y="2.998" width="28" height="28" rx="6" fill="url(#paint1_radial_299_2006)"/><rect x="2" y="2.998" width="28" height="28" rx="6" fill="#1CAF83"/><path d="M23 11.498a1.5 1.5 0 11-3 0 1.5 1.5 0 013 0z" fill="#fff"/><path fill-rule="evenodd" clip-rule="evenodd" d="M16 21.998a5 5 0 100-10 5 5 0 000 10zm0-2a3 3 0 100-6 3 3 0 000 6z" fill="#fff"/><path fill-rule="evenodd" clip-rule="evenodd" d="M6 16.598c0-3.36 0-5.04.654-6.324a6 6 0 012.622-2.622c1.284-.654 2.964-.654 6.324-.654h.8c3.36 0 5.04 0 6.324.654a6 6 0 012.622 2.622C26 11.557 26 13.237 26 16.598v.8c0 3.36 0 5.04-.654 6.323a6 6 0 01-2.622 2.623c-1.284.654-2.964.654-6.324.654h-.8c-3.36 0-5.04 0-6.324-.654a6 6 0 01-2.622-2.623C6 22.438 6 20.758 6 17.398v-.8zm9.6-7.6h.8c1.713 0 2.878.001 3.778.075.877.071 1.325.201 1.638.36a4 4 0 011.748 1.749c.16.312.29.76.36 1.638.074.9.076 2.064.076 3.778v.8c0 1.713-.002 2.877-.075 3.777-.072.877-.202 1.326-.361 1.639a4 4 0 01-1.748 1.748c-.313.159-.761.289-1.638.36-.9.074-2.065.076-3.778.076h-.8c-1.713 0-2.878-.002-3.778-.076-.877-.071-1.325-.201-1.638-.36a4 4 0 01-1.748-1.748c-.16-.313-.29-.762-.36-1.639-.074-.9-.076-2.064-.076-3.777v-.8c0-1.714.002-2.878.075-3.778.072-.877.202-1.326.361-1.638a4 4 0 011.748-1.748c.313-.16.761-.29 1.638-.361.9-.074 2.065-.075 3.778-.075z" fill="#fff"/><defs><radialGradient id="paint0_radial_299_2006" cx="0" cy="0" r="1" gradientUnits="userSpaceOnUse" gradientTransform="rotate(-55.376 28.866 .565) scale(25.5196)"><stop stop-color="#B13589"/><stop offset=".793" stop-color="#C62F94"/><stop offset="1" stop-color="#8A3AC8"/></radialGradient><radialGradient id="paint1_radial_299_2006" cx="0" cy="0" r="1" gradientUnits="userSpaceOnUse" gradientTransform="rotate(-65.136 30.547 7.388) scale(22.5942)"><stop stop-color="#E0E8B7"/><stop offset=".445" stop-color="#FB8A2E"/><stop offset=".715" stop-color="#E2425C"/><stop offset="1" stop-color="#E2425C" stop-opacity="0"/></radialGradient></defs></svg>