<svg width="32" height="33" fill="none" xmlns="http://www.w3.org/2000/svg"><rect x="2" y="2.998" width="28" height="28" rx="14" fill="#1CAF83"/><path d="M12.619 10.69c0 .934-.81 1.692-1.81 1.692C9.81 12.382 9 11.624 9 10.69c0-.935.81-1.692 1.81-1.692.998 0 1.809.757 1.809 1.692zM9.247 13.626h3.093v9.372H9.247v-9.372zM17.32 13.626h-3.093v9.372h3.093v-4.796c0-1.107.378-2.219 1.886-2.219 1.705 0 1.695 1.45 1.687 2.572-.01 1.467.014 2.964.014 4.443H24V18.05c-.026-3.158-.85-4.613-3.557-4.613-1.608 0-2.604.73-3.123 1.39v-1.202z" fill="#fff"/></svg>