<svg width="32" height="33" fill="none" xmlns="http://www.w3.org/2000/svg"><path d="M11.789 28.998c-3.235 0-6.25-.941-8.789-2.565 2.155.14 5.958-.194 8.324-2.45-3.559-.164-5.164-2.893-5.373-4.06.302.117 1.744.257 2.558-.07-4.093-1.026-4.721-4.618-4.582-5.715.768.537 2.07.724 2.582.677-3.814-2.73-2.442-6.835-1.767-7.721 2.737 3.792 6.84 5.922 11.914 6.04a5.866 5.866 0 01-.146-1.305c0-3.22 2.603-5.831 5.815-5.831a5.79 5.79 0 014.25 1.852c1.122-.262 2.81-.877 3.634-1.41-.416 1.494-1.71 2.739-2.493 3.2.006.016-.007-.015 0 0 .688-.103 2.549-.461 3.284-.96-.364.839-1.736 2.233-2.862 3.014.21 9.242-6.862 17.304-16.35 17.304z" fill="#1CAF83"/></svg>